<svg width="20" height="21" viewBox="0 0 20 21" fill="none" xmlns="http://www.w3.org/2000/svg">
<g filter="url(#filter0_d_787_132)">
<path d="M9.76404 0.463293C9.81513 0.416732 9.87583 0.379791 9.94265 0.354586C10.0095 0.32938 10.0811 0.316406 10.1534 0.316406C10.2258 0.316406 10.2974 0.32938 10.3642 0.354586C10.4311 0.379791 10.4918 0.416732 10.5428 0.463293C11.9068 1.70723 13.4182 2.31721 15.1023 2.31721C15.2482 2.31721 15.3881 2.36988 15.4913 2.46364C15.5944 2.55741 15.6523 2.68458 15.6523 2.81718V5.81804C15.6523 9.03689 13.8472 11.2248 10.3261 12.2907C10.2133 12.325 10.0914 12.325 9.97854 12.2907C6.45854 11.2248 4.65234 9.03689 4.65234 5.81804V2.81718C4.65234 2.68458 4.71029 2.55741 4.81344 2.46364C4.91658 2.36988 5.05647 2.31721 5.20234 2.31721C6.88534 2.31721 8.39674 1.70623 9.76404 0.463293Z" fill="white" fill-opacity="0.27" shape-rendering="crispEdges"/>
</g>
<defs>
<filter id="filter0_d_787_132" x="0.652344" y="0.316406" width="19" height="20" filterUnits="userSpaceOnUse" color-interpolation-filters="sRGB">
<feFlood flood-opacity="0" result="BackgroundImageFix"/>
<feColorMatrix in="SourceAlpha" type="matrix" values="0 0 0 0 0 0 0 0 0 0 0 0 0 0 0 0 0 0 127 0" result="hardAlpha"/>
<feOffset dy="4"/>
<feGaussianBlur stdDeviation="2"/>
<feComposite in2="hardAlpha" operator="out"/>
<feColorMatrix type="matrix" values="0 0 0 0 0 0 0 0 0 0 0 0 0 0 0 0 0 0 0.48 0"/>
<feBlend mode="normal" in2="BackgroundImageFix" result="effect1_dropShadow_787_132"/>
<feBlend mode="normal" in="SourceGraphic" in2="effect1_dropShadow_787_132" result="shape"/>
</filter>
</defs>
</svg>
