<svg width="21" height="20" viewBox="0 0 21 20" fill="none" xmlns="http://www.w3.org/2000/svg">
<g filter="url(#filter0_d_787_108)">
<path d="M15.7177 1.14534C15.3623 0.78275 14.9396 0.494899 14.474 0.29834C14.0084 0.101781 13.509 0.000391537 13.0046 0C12.0504 0.000157997 11.1312 0.363241 10.4287 1.01736C9.72637 0.36313 8.80704 3.0399e-05 7.85289 0C7.34787 0.000532645 6.84793 0.102232 6.38186 0.299245C5.91578 0.496258 5.49277 0.784695 5.13716 1.14796C3.62041 2.69097 3.62105 5.10442 5.13845 6.64091L10.4287 12L15.719 6.64091C17.2364 5.10442 17.2371 2.69097 15.7177 1.14534Z" fill="white" fill-opacity="0.27" shape-rendering="crispEdges"/>
</g>
<defs>
<filter id="filter0_d_787_108" x="0" y="0" width="20.8572" height="20" filterUnits="userSpaceOnUse" color-interpolation-filters="sRGB">
<feFlood flood-opacity="0" result="BackgroundImageFix"/>
<feColorMatrix in="SourceAlpha" type="matrix" values="0 0 0 0 0 0 0 0 0 0 0 0 0 0 0 0 0 0 127 0" result="hardAlpha"/>
<feOffset dy="4"/>
<feGaussianBlur stdDeviation="2"/>
<feComposite in2="hardAlpha" operator="out"/>
<feColorMatrix type="matrix" values="0 0 0 0 0 0 0 0 0 0 0 0 0 0 0 0 0 0 0.48 0"/>
<feBlend mode="normal" in2="BackgroundImageFix" result="effect1_dropShadow_787_108"/>
<feBlend mode="normal" in="SourceGraphic" in2="effect1_dropShadow_787_108" result="shape"/>
</filter>
</defs>
</svg>
