<svg width="22" height="20" viewBox="0 0 22 20" fill="none" xmlns="http://www.w3.org/2000/svg">
<g filter="url(#filter0_d_787_116)">
<path d="M17.5095 6.31641C17.5095 6.58162 17.4012 6.83598 17.2085 7.02351C17.0159 7.21105 16.7545 7.31641 16.482 7.31641H5.17982C4.90731 7.31641 4.64597 7.21105 4.45328 7.02351C4.26059 6.83598 4.15234 6.58162 4.15234 6.31641C4.15234 6.05119 4.26059 5.79684 4.45328 5.6093C4.64597 5.42176 4.90731 5.31641 5.17982 5.31641H16.482C16.7545 5.31641 17.0159 5.42176 17.2085 5.6093C17.4012 5.79684 17.5095 6.05119 17.5095 6.31641ZM6.72102 8.31641H5.17982C5.17982 9.11206 5.50457 9.87512 6.08264 10.4377C6.6607 11.0003 7.44473 11.3164 8.26223 11.3164H13.3996C14.2171 11.3164 15.0011 11.0003 15.5792 10.4377C16.1573 9.87512 16.482 9.11206 16.482 8.31641H6.72102ZM6.20729 4.31641H5.17982V2.31641C5.17982 1.78597 5.39632 1.27727 5.7817 0.902193C6.16707 0.52712 6.68976 0.316406 7.23476 0.316406H14.4271C14.9721 0.316406 15.4948 0.52712 15.8801 0.902193C16.2655 1.27727 16.482 1.78597 16.482 2.31641V4.31641H6.20729ZM14.4271 2.81641C14.4271 2.94901 14.4812 3.07619 14.5775 3.16996C14.6739 3.26373 14.8046 3.31641 14.9408 3.31641C15.0771 3.31641 15.2077 3.26373 15.3041 3.16996C15.4004 3.07619 15.4545 2.94901 15.4545 2.81641C15.4545 2.6838 15.4004 2.55662 15.3041 2.46285C15.2077 2.36908 15.0771 2.31641 14.9408 2.31641C14.8046 2.31641 14.6739 2.36908 14.5775 2.46285C14.4812 2.55662 14.4271 2.6838 14.4271 2.81641ZM12.3721 1.81641C12.3721 1.94901 12.4262 2.07619 12.5226 2.16996C12.6189 2.26373 12.7496 2.31641 12.8859 2.31641C13.0221 2.31641 13.1528 2.26373 13.2491 2.16996C13.3455 2.07619 13.3996 1.94901 13.3996 1.81641C13.3996 1.6838 13.3455 1.55662 13.2491 1.46285C13.1528 1.36908 13.0221 1.31641 12.8859 1.31641C12.7496 1.31641 12.6189 1.36908 12.5226 1.46285C12.4262 1.55662 12.3721 1.6838 12.3721 1.81641ZM10.3172 2.81641C10.3172 2.94901 10.3713 3.07619 10.4676 3.16996C10.564 3.26373 10.6947 3.31641 10.8309 3.31641C10.9672 3.31641 11.0978 3.26373 11.1942 3.16996C11.2905 3.07619 11.3447 2.94901 11.3447 2.81641C11.3447 2.6838 11.2905 2.55662 11.1942 2.46285C11.0978 2.36908 10.9672 2.31641 10.8309 2.31641C10.6947 2.31641 10.564 2.36908 10.4676 2.46285C10.3713 2.55662 10.3172 2.6838 10.3172 2.81641ZM8.26223 1.81641C8.26223 1.94901 8.31636 2.07619 8.4127 2.16996C8.50905 2.26373 8.63972 2.31641 8.77597 2.31641C8.91222 2.31641 9.04289 2.26373 9.13924 2.16996C9.23558 2.07619 9.28971 1.94901 9.28971 1.81641C9.28971 1.6838 9.23558 1.55662 9.13924 1.46285C9.04289 1.36908 8.91222 1.31641 8.77597 1.31641C8.63972 1.31641 8.50905 1.36908 8.4127 1.46285C8.31636 1.55662 8.26223 1.6838 8.26223 1.81641ZM6.20729 2.81641C6.20729 2.94901 6.26141 3.07619 6.35776 3.16996C6.4541 3.26373 6.58477 3.31641 6.72102 3.31641C6.85728 3.31641 6.98795 3.26373 7.08429 3.16996C7.18064 3.07619 7.23476 2.94901 7.23476 2.81641C7.23476 2.6838 7.18064 2.55662 7.08429 2.46285C6.98795 2.36908 6.85728 2.31641 6.72102 2.31641C6.58477 2.31641 6.4541 2.36908 6.35776 2.46285C6.26141 2.55662 6.20729 2.6838 6.20729 2.81641Z" fill="white" fill-opacity="0.27" shape-rendering="crispEdges"/>
</g>
<defs>
<filter id="filter0_d_787_116" x="0.152344" y="0.316406" width="21.3572" height="19" filterUnits="userSpaceOnUse" color-interpolation-filters="sRGB">
<feFlood flood-opacity="0" result="BackgroundImageFix"/>
<feColorMatrix in="SourceAlpha" type="matrix" values="0 0 0 0 0 0 0 0 0 0 0 0 0 0 0 0 0 0 127 0" result="hardAlpha"/>
<feOffset dy="4"/>
<feGaussianBlur stdDeviation="2"/>
<feComposite in2="hardAlpha" operator="out"/>
<feColorMatrix type="matrix" values="0 0 0 0 0 0 0 0 0 0 0 0 0 0 0 0 0 0 0.48 0"/>
<feBlend mode="normal" in2="BackgroundImageFix" result="effect1_dropShadow_787_116"/>
<feBlend mode="normal" in="SourceGraphic" in2="effect1_dropShadow_787_116" result="shape"/>
</filter>
</defs>
</svg>
