<?xml version="1.0" encoding="UTF-8"?>
<svg version="1.1" xmlns="http://www.w3.org/2000/svg" width="512" height="122">
<path d="M0 0 C0.73048673 -0.00235223 1.46097347 -0.00470446 2.21359617 -0.00712797 C4.68653096 -0.01383933 7.15941348 -0.01335911 9.63235664 -0.01294994 C11.41314656 -0.01624723 13.19393573 -0.01997251 14.97472394 -0.02409142 C19.88796379 -0.03413473 24.80119143 -0.03783194 29.71444011 -0.04048073 C35.0056064 -0.04437682 40.29676295 -0.05395554 45.58792305 -0.0626936 C58.3747585 -0.08247636 71.16159476 -0.09252592 83.94844168 -0.10142139 C89.96396193 -0.10580079 95.97948129 -0.11116845 101.99500084 -0.11641026 C121.98093356 -0.13342335 141.96686572 -0.14791921 161.95280457 -0.155159 C167.14181583 -0.15706901 172.33082709 -0.15898933 177.51983833 -0.16094494 C178.80960367 -0.16142868 180.09936901 -0.16191242 181.42821814 -0.16241082 C202.33816263 -0.17071743 223.24805004 -0.19606462 244.15796958 -0.22852562 C265.60568873 -0.26155123 287.05337882 -0.27960363 308.50112355 -0.28280324 C320.5514334 -0.28497237 332.60165997 -0.29377993 344.65194511 -0.31926441 C354.91090589 -0.34090994 365.16976316 -0.34905221 375.42874418 -0.33929763 C380.66667376 -0.3347352 385.9043895 -0.33675139 391.14229012 -0.35605907 C395.93267054 -0.37356532 400.72267916 -0.37279596 405.51306285 -0.35716178 C407.25061768 -0.35476652 408.98819742 -0.35920748 410.72571395 -0.37099043 C413.07928976 -0.38596885 415.43152397 -0.37653624 417.7850647 -0.36076355 C419.09477513 -0.36174036 420.40448557 -0.36271717 421.7538842 -0.36372358 C425.57640769 0.2193401 426.73313082 1.07397819 429.01837349 4.13422108 C429.95098406 6.9320528 430.1477821 8.63114449 430.15881538 11.52347279 C430.16452553 12.42068546 430.17023567 13.31789814 430.17611885 14.24229908 C430.17723671 15.22418705 430.17835457 16.20607502 430.1795063 17.21771717 C430.18447121 18.25375584 430.18943611 19.2897945 430.19455147 20.35722828 C430.20917817 23.79071175 430.21597563 27.22414904 430.22149849 30.65765858 C430.2272491 33.0403592 430.23300684 35.4230598 430.23877144 37.80576038 C430.24928258 42.80424687 430.25512465 47.80271727 430.25860786 52.80121326 C430.26409572 59.20950103 430.28812969 65.61757666 430.31657982 72.02579784 C430.33519213 76.94826348 430.34041103 81.87067784 430.34194374 86.7931757 C430.34497348 89.15589655 430.35301278 91.51861644 430.36612892 93.88130283 C430.38316119 97.18501208 430.38131595 100.48820072 430.3748188 103.79193592 C430.38403358 104.76977543 430.39324837 105.74761494 430.40274239 106.75508595 C430.37242513 111.67001793 430.32533393 115.20491015 427.01837349 119.13422108 C423.23706396 121.65509409 420.24956115 121.41424142 415.87012863 121.39148998 C415.02566661 121.39499606 414.18120459 121.39850213 413.31115282 121.40211445 C410.45646624 121.41148366 407.60198121 121.40649098 404.74728584 121.40164661 C402.68998306 121.4053801 400.63268169 121.4099804 398.57538259 121.41537726 C392.90241224 121.42766001 387.22950062 121.42734061 381.55651999 121.42498851 C375.44598122 121.42458167 369.33546163 121.43560671 363.22493172 121.44510365 C351.24606838 121.46174334 339.26723009 121.46724039 327.28835823 121.4683284 C317.55544031 121.46924665 307.8225288 121.47335894 298.08961296 121.47972965 C295.29041367 121.48152467 292.49121436 121.4833043 289.69201505 121.48507941 C288.64825192 121.48574255 288.64825192 121.48574255 287.58340266 121.48641909 C268.00442822 121.49873151 248.42545599 121.50661981 228.84647751 121.50573254 C228.10795438 121.50570138 227.36943125 121.50567022 226.60852863 121.50563812 C222.86518283 121.5054719 219.12183704 121.50527382 215.37849124 121.5050687 C214.26328041 121.50500887 214.26328041 121.50500887 213.12554006 121.50494782 C211.62205408 121.50486695 210.11856809 121.50478335 208.6150821 121.50469704 C185.21888876 121.5034713 161.82275337 121.51848729 138.42657661 121.54584217 C112.15579461 121.57654521 85.88505068 121.59377575 59.61424959 121.59191573 C56.81442157 121.59176646 54.01459356 121.59166905 51.21476555 121.59160709 C50.18064234 121.59157213 50.18064234 121.59157213 49.12562775 121.59153646 C38.01804197 121.59147485 26.91050638 121.60426134 15.80293554 121.62147162 C4.64480846 121.63840299 -6.51324578 121.6400776 -17.67138503 121.62725298 C-23.71953764 121.62070019 -29.7675078 121.6206892 -35.81564331 121.63795948 C-41.34742844 121.65359336 -46.87888501 121.6509263 -52.41066165 121.63339122 C-54.41670562 121.63029985 -56.42277354 121.63403321 -58.4287893 121.64511137 C-61.14682918 121.65913285 -63.86370056 121.64872514 -66.58169937 121.63199902 C-67.36827514 121.64193538 -68.1548509 121.65187173 -68.96526229 121.6621092 C-72.63812246 121.61402312 -74.78634439 121.25639282 -77.92849696 119.29060996 C-80.07034743 117.04103806 -81.1489076 115.40855739 -81.35320854 112.2611742 C-79.50995269 101.71029053 -68.65058257 90.07741101 -62.71410942 81.36197376 C-59.49695132 76.63750949 -56.29313945 71.90403062 -53.09100151 67.16937733 C-52.09684731 65.69955151 -52.09684731 65.69955151 -51.08260918 64.20003223 C-42.41929816 51.36893337 -33.92769785 38.42442315 -25.43816948 25.47797108 C-8.73097239 0.01192617 -8.73097239 0.01192617 0 0 Z " fill="rgba(0, 0, 0, 0.2)" transform="translate(81.98162651062012,-0.13422107696533203)"/>
<path d="M0 0 C0.73048673 -0.00235223 1.46097347 -0.00470446 2.21359617 -0.00712797 C4.68653096 -0.01383933 7.15941348 -0.01335911 9.63235664 -0.01294994 C11.41314656 -0.01624723 13.19393573 -0.01997251 14.97472394 -0.02409142 C19.88796379 -0.03413473 24.80119143 -0.03783194 29.71444011 -0.04048073 C35.0056064 -0.04437682 40.29676295 -0.05395554 45.58792305 -0.0626936 C58.3747585 -0.08247636 71.16159476 -0.09252592 83.94844168 -0.10142139 C89.96396193 -0.10580079 95.97948129 -0.11116845 101.99500084 -0.11641026 C121.98093356 -0.13342335 141.96686572 -0.14791921 161.95280457 -0.155159 C167.14181583 -0.15706901 172.33082709 -0.15898933 177.51983833 -0.16094494 C178.80960367 -0.16142868 180.09936901 -0.16191242 181.42821814 -0.16241082 C202.33816263 -0.17071743 223.24805004 -0.19606462 244.15796958 -0.22852562 C265.60568873 -0.26155123 287.05337882 -0.27960363 308.50112355 -0.28280324 C320.5514334 -0.28497237 332.60165997 -0.29377993 344.65194511 -0.31926441 C354.91090589 -0.34090994 365.16976316 -0.34905221 375.42874418 -0.33929763 C380.66667376 -0.3347352 385.9043895 -0.33675139 391.14229012 -0.35605907 C395.93267054 -0.37356532 400.72267916 -0.37279596 405.51306285 -0.35716178 C407.25061768 -0.35476652 408.98819742 -0.35920748 410.72571395 -0.37099043 C413.07928976 -0.38596885 415.43152397 -0.37653624 417.7850647 -0.36076355 C419.09477513 -0.36174036 420.40448557 -0.36271717 421.7538842 -0.36372358 C425.57640769 0.2193401 426.73313082 1.07397819 429.01837349 4.13422108 C429.95098406 6.9320528 430.1477821 8.63114449 430.15881538 11.52347279 C430.16452553 12.42068546 430.17023567 13.31789814 430.17611885 14.24229908 C430.17723671 15.22418705 430.17835457 16.20607502 430.1795063 17.21771717 C430.18447121 18.25375584 430.18943611 19.2897945 430.19455147 20.35722828 C430.20917817 23.79071175 430.21597563 27.22414904 430.22149849 30.65765858 C430.2272491 33.0403592 430.23300684 35.4230598 430.23877144 37.80576038 C430.24928258 42.80424687 430.25512465 47.80271727 430.25860786 52.80121326 C430.26409572 59.20950103 430.28812969 65.61757666 430.31657982 72.02579784 C430.33519213 76.94826348 430.34041103 81.87067784 430.34194374 86.7931757 C430.34497348 89.15589655 430.35301278 91.51861644 430.36612892 93.88130283 C430.38316119 97.18501208 430.38131595 100.48820072 430.3748188 103.79193592 C430.38403358 104.76977543 430.39324837 105.74761494 430.40274239 106.75508595 C430.37242513 111.67001793 430.32533393 115.20491015 427.01837349 119.13422108 C423.23706396 121.65509409 420.24956115 121.41424142 415.87012863 121.39148998 C415.02566661 121.39499606 414.18120459 121.39850213 413.31115282 121.40211445 C410.45646624 121.41148366 407.60198121 121.40649098 404.74728584 121.40164661 C402.68998306 121.4053801 400.63268169 121.4099804 398.57538259 121.41537726 C392.90241224 121.42766001 387.22950062 121.42734061 381.55651999 121.42498851 C375.44598122 121.42458167 369.33546163 121.43560671 363.22493172 121.44510365 C351.24606838 121.46174334 339.26723009 121.46724039 327.28835823 121.4683284 C317.55544031 121.46924665 307.8225288 121.47335894 298.08961296 121.47972965 C295.29041367 121.48152467 292.49121436 121.4833043 289.69201505 121.48507941 C288.64825192 121.48574255 288.64825192 121.48574255 287.58340266 121.48641909 C268.00442822 121.49873151 248.42545599 121.50661981 228.84647751 121.50573254 C228.10795438 121.50570138 227.36943125 121.50567022 226.60852863 121.50563812 C222.86518283 121.5054719 219.12183704 121.50527382 215.37849124 121.5050687 C214.26328041 121.50500887 214.26328041 121.50500887 213.12554006 121.50494782 C211.62205408 121.50486695 210.11856809 121.50478335 208.6150821 121.50469704 C185.21888876 121.5034713 161.82275337 121.51848729 138.42657661 121.54584217 C112.15579461 121.57654521 85.88505068 121.59377575 59.61424959 121.59191573 C56.81442157 121.59176646 54.01459356 121.59166905 51.21476555 121.59160709 C50.18064234 121.59157213 50.18064234 121.59157213 49.12562775 121.59153646 C38.01804197 121.59147485 26.91050638 121.60426134 15.80293554 121.62147162 C4.64480846 121.63840299 -6.51324578 121.6400776 -17.67138503 121.62725298 C-23.71953764 121.62070019 -29.7675078 121.6206892 -35.81564331 121.63795948 C-41.34742844 121.65359336 -46.87888501 121.6509263 -52.41066165 121.63339122 C-54.41670562 121.63029985 -56.42277354 121.63403321 -58.4287893 121.64511137 C-61.14682918 121.65913285 -63.86370056 121.64872514 -66.58169937 121.63199902 C-67.36827514 121.64193538 -68.1548509 121.65187173 -68.96526229 121.6621092 C-72.63812246 121.61402312 -74.78634439 121.25639282 -77.92849696 119.29060996 C-80.07034743 117.04103806 -81.1489076 115.40855739 -81.35320854 112.2611742 C-79.50995269 101.71029053 -68.65058257 90.07741101 -62.71410942 81.36197376 C-59.49695132 76.63750949 -56.29313945 71.90403062 -53.09100151 67.16937733 C-52.09684731 65.69955151 -52.09684731 65.69955151 -51.08260918 64.20003223 C-42.41929816 51.36893337 -33.92769785 38.42442315 -25.43816948 25.47797108 C-8.73097239 0.01192617 -8.73097239 0.01192617 0 0 Z M-9.98162651 9.13422108 C-10.6042437 10.01980701 -11.22686089 10.90539295 -11.86834526 11.81781483 C-12.46260307 12.72660389 -13.05686089 13.63539295 -13.66912651 14.57172108 C-16.61432074 19.06331454 -19.57812851 23.5417437 -22.55975151 28.00922108 C-22.99085732 28.65556004 -23.42196312 29.30189899 -23.86613274 29.96782398 C-27.47948996 35.3842626 -31.09722641 40.7977743 -34.71470451 46.21146107 C-38.8028627 52.33145095 -42.8802189 58.45860053 -46.95516777 64.58739185 C-50.39805921 69.76307717 -53.85460215 74.929376 -57.31913567 80.0905962 C-59.65160947 83.57026024 -61.97438239 87.05632745 -64.29507256 90.54385853 C-65.4151244 92.22262908 -66.53922477 93.89870588 -67.66744804 95.57199574 C-69.24122053 97.90740591 -70.80043014 100.25191965 -72.35662651 102.59906483 C-72.82729042 103.29019367 -73.29795433 103.98132252 -73.78288078 104.69339466 C-75.55752818 107.39567805 -76.89687035 109.74205185 -77.58318901 112.91766834 C-77.16765883 115.31071266 -77.16765883 115.31071266 -74.96396929 116.74916041 C-71.15501847 118.51811467 -67.77680695 118.54887344 -63.66257954 118.5117445 C-62.8239521 118.51610482 -61.98532466 118.52046514 -61.12128428 118.5249576 C-58.29840007 118.53594543 -55.47600106 118.52547539 -52.65312004 118.515172 C-50.6140016 118.51862716 -48.57488503 118.52339077 -46.53577238 118.52935374 C-40.92236356 118.54191273 -35.30910714 118.5356711 -29.69569767 118.52639508 C-23.64588044 118.51962501 -17.59608996 118.53007563 -11.546278 118.53833485 C-0.37663964 118.55092325 10.79294973 118.5498051 21.96258709 118.54160044 C32.28003562 118.53405879 42.59746627 118.53208133 52.91491699 118.53566837 C53.5988481 118.53589753 54.28277922 118.53612668 54.98743551 118.53636278 C57.76360596 118.53729677 60.53977639 118.53825197 63.31594681 118.53924207 C89.36640236 118.5484222 115.41682685 118.54009356 141.4672776 118.52395138 C164.6221029 118.50971262 187.7768787 118.51098942 210.93170357 118.52533436 C236.93550722 118.54139038 262.93928341 118.54777279 288.94309133 118.53849757 C291.7139428 118.53753539 294.48479427 118.53659687 297.25564575 118.53566837 C298.27905697 118.53531252 298.27905697 118.53531252 299.32314316 118.53494949 C309.63593419 118.53153397 319.9487054 118.53553362 330.26149368 118.54310703 C341.98428305 118.55167289 353.70702513 118.54927605 365.42981083 118.5332648 C371.41503744 118.52536045 377.40016338 118.52232727 383.38538933 118.53221226 C388.85840401 118.54111485 394.33122419 118.53629988 399.80422109 118.5202796 C401.78999581 118.51691293 403.77578677 118.51866782 405.76155115 118.52590697 C408.44966078 118.53495904 411.13709405 118.52574501 413.82516766 118.5117445 C414.99608169 118.52227975 414.99608169 118.52227975 416.19065055 118.53302783 C419.41505832 118.49919638 421.66042114 118.33545528 424.49916315 116.73956692 C426.48792624 114.63804584 426.51882569 113.52462014 426.51957893 110.65558338 C426.52941307 109.73865208 426.53924721 108.82172077 426.54937935 107.87700367 C426.53971138 106.87327213 426.53004341 105.8695406 426.52008247 104.83539295 C426.52548546 103.77663456 426.53088844 102.71787617 426.53645515 101.62703419 C426.54898747 98.11873092 426.53242079 94.61124107 426.51446724 91.10297108 C426.51462212 88.67063828 426.51610931 86.23830523 426.51887703 83.80597401 C426.52026305 78.70482969 426.50766866 73.60396585 426.48492622 68.50287342 C426.45654137 61.95533316 426.4592764 55.40825916 426.47201633 48.86068439 C426.47896241 43.83704089 426.47119644 38.81350567 426.45875931 33.78987598 C426.4542344 31.37527856 426.45391703 28.96066955 426.45782471 26.54607105 C426.46072636 23.17482028 426.44427935 19.80421814 426.42242622 16.4330492 C426.42692787 15.42931767 426.43142952 14.42558613 426.43606758 13.39143848 C426.42121063 12.01604153 426.42121063 12.01604153 426.40605354 10.61285877 C426.40362365 9.81571712 426.40119375 9.01857548 426.39869022 8.19727802 C425.89531841 5.46669945 425.26758804 4.77187122 423.01837349 3.13422108 C419.77966982 2.67630064 419.77966982 2.67630064 415.97896194 2.74831772 C415.25437446 2.74305861 414.52978697 2.73779949 413.78324229 2.73238102 C411.33623268 2.71833822 408.88975298 2.72581287 406.44272041 2.73308277 C404.67827569 2.72748195 402.91383469 2.72058126 401.14939964 2.7124868 C396.28591476 2.69406981 391.42258409 2.6945409 386.55907226 2.69806993 C381.31969212 2.69868037 376.08036224 2.68214088 370.84100533 2.66789722 C360.57064577 2.64294157 350.30033785 2.63473108 340.02995051 2.63306009 C331.68480466 2.63163634 323.3396759 2.62548077 314.99453545 2.61595821 C291.35311738 2.58952881 267.71174022 2.57570164 244.07030727 2.57794964 C242.15717085 2.57812944 242.15717085 2.57812944 240.20538521 2.57831287 C238.28992261 2.57849684 238.28992261 2.57849684 236.3357638 2.57868452 C215.63344432 2.57990426 194.93128846 2.55118916 174.22901632 2.50889777 C152.99030243 2.46585162 131.75166841 2.44508472 110.51290977 2.4476791 C98.58159727 2.44867657 86.65045628 2.44036757 74.71918297 2.40814495 C64.56160249 2.38088911 54.40427126 2.37425501 44.24667014 2.39467322 C39.06117303 2.40449918 33.87615463 2.40453159 28.69070244 2.37861347 C23.9470152 2.35514663 19.20418965 2.35917795 14.46052454 2.38546587 C12.741152 2.39009955 11.0217165 2.3845148 9.30241813 2.36788564 C6.97038077 2.34681744 4.64139812 2.36248178 2.30946732 2.38755417 C1.01282972 2.38690206 -0.28380787 2.38624996 -1.61973751 2.3855781 C-6.3137856 3.43087321 -7.27639926 5.22937081 -9.98162651 9.13422108 Z " fill="#FEFEFE" transform="translate(81.98162651062012,-0.13422107696533203)"/>
<path d="M0 0 C0.66 0 1.32 0 2 0 C2 0.66 2 1.32 2 2 C3.32 1.67 4.64 1.34 6 1 C3.47211993 3.79872437 1.79588866 5.45773019 -2 6 C-1.67 4.68 -1.34 3.36 -1 2 C-0.34 2.33 0.32 2.66 1 3 C0.67 2.01 0.34 1.02 0 0 Z " fill="#090909" transform="translate(58,70)"/>
</svg>
