<svg width="4" height="4" viewBox="0 0 4 4" fill="none" xmlns="http://www.w3.org/2000/svg">
<path d="M0.664551 0.497559H1.13199C1.17561 0.497559 1.21457 0.515085 1.24261 0.543763L1.5667 0.876756L1.69135 0.750888C1.75523 0.68875 1.83314 0.656885 1.91105 0.656885H2.84592C2.92382 0.656885 3.00173 0.68875 3.06561 0.750888L3.22143 0.910214C3.28219 0.975538 3.31335 1.0552 3.31335 1.13486V3.20611C3.31335 3.29062 3.28052 3.37167 3.22208 3.43143C3.16364 3.49119 3.08438 3.52476 3.00173 3.52476H1.44361C1.36096 3.52476 1.2817 3.49119 1.22326 3.43143C1.16482 3.37167 1.13199 3.29062 1.13199 3.20611V1.45352C1.13199 1.37385 1.16315 1.29419 1.22392 1.22887L1.34701 1.10141L1.0681 0.816212H0.664551V0.497559ZM1.91105 0.975538V1.29419H2.84592V0.975538H1.91105ZM1.97493 1.9315L1.66331 1.61284H1.44361V1.83749L1.75523 2.15615V2.66281L1.44361 2.98146V3.20611H1.66331L1.97493 2.88746H2.47041L2.78204 3.20611H3.00173V2.98146L2.69011 2.66281V2.15615L3.00173 1.83749V1.61284H2.78204L2.47041 1.9315H1.97493ZM2.06686 2.25015H2.37848V2.5688H2.06686V2.25015Z" fill="#CC894B"/>
</svg>
