<svg width="4" height="4" viewBox="0 0 4 4" fill="none" xmlns="http://www.w3.org/2000/svg">
<path d="M1.95703 0L2.31362 0.302228C2.3469 0.330436 2.36528 0.368991 2.36814 0.409003L2.40007 0.872574L2.57654 0.857148C2.66545 0.851051 2.74549 0.877113 2.80492 0.927485L3.51809 1.53194C3.57752 1.58231 3.61635 1.65699 3.62491 1.7457L3.64076 1.96798C3.64488 2.05711 3.61714 2.13803 3.56563 2.1988L2.22644 3.77887C2.1718 3.84334 2.09435 3.88394 2.01113 3.89174C1.92791 3.89954 1.84573 3.87391 1.78268 3.82047L0.594059 2.81304C0.53101 2.75961 0.492251 2.68275 0.486307 2.59937C0.480363 2.516 0.507721 2.43294 0.562364 2.36847L1.69553 1.03149C1.74704 0.970718 1.82232 0.930095 1.91091 0.919551L2.08722 0.901903L2.05886 0.504011L1.751 0.243087L1.95703 0ZM2.59889 1.17057L2.39286 1.41366L3.10603 2.01811L3.31206 1.77503L2.59889 1.17057ZM2.02953 1.94114L1.99784 1.49657L1.83024 1.35452L1.68499 1.5259L1.71668 1.97047L1.3891 2.35698L0.94534 2.39858L0.800089 2.56996L0.967685 2.712L1.41144 2.6704L1.78942 2.99076L1.82112 3.43533L1.98871 3.57738L2.13397 3.40601L2.10227 2.96143L2.42986 2.57492L2.87361 2.53332L3.01886 2.36194L2.85127 2.2199L2.40751 2.2615L2.02953 1.94114ZM1.89363 2.24366L2.13135 2.44515L1.92532 2.68824L1.6876 2.48675L1.89363 2.24366Z" fill="#CC894B"/>
</svg>
