<svg width="219" height="44" viewBox="0 0 219 44" fill="none" xmlns="http://www.w3.org/2000/svg">
<path d="M34.1301 1.56453C35.0745 0.565846 36.3884 0 37.7629 0H214C216.761 0 219 2.23858 219 5V39C219 41.7614 216.761 44 214 44H5.61004C1.2225 44 -1.03746 38.7524 1.9772 35.5645L34.1301 1.56453Z" fill="black" fill-opacity="0.38"/>
<path d="M34.4933 1.90807C35.3433 1.00926 36.5258 0.5 37.7629 0.5H214C216.485 0.5 218.5 2.51472 218.5 5V39C218.5 41.4853 216.485 43.5 214 43.5H5.61004C1.66125 43.5 -0.372709 38.7771 2.34048 35.9081L34.4933 1.90807Z" stroke="#abff03" stroke-opacity="0.46"/>
</svg>
