<svg width="3" height="4" viewBox="0 0 3 4" fill="none" xmlns="http://www.w3.org/2000/svg">
<path d="M0.697986 3.69443C0.73945 3.71643 0.78319 3.6688 0.757803 3.62938C0.620009 3.41539 0.489526 3.0553 0.697417 2.59156C1.0441 1.81823 1.26598 1.63758 1.26598 1.63758C1.26598 1.63758 1.36726 1.88512 1.67143 2.30071C1.96417 2.7007 2.1244 3.20375 1.86608 3.62282C1.84184 3.66215 1.88459 3.70856 1.92578 3.68753C2.24554 3.52431 2.60418 3.19693 2.64465 2.54545C2.65957 2.34637 2.64465 2.26183 2.6141 2.16719C2.47024 1.72144 2.21551 1.28209 2.11318 1.19276C2.08257 1.16604 2.03497 1.18973 2.03748 1.23023C2.0673 1.71119 1.88596 1.83325 1.78274 1.55819C1.74152 1.44832 1.72966 1.10803 1.71748 1.02689C1.67078 0.715923 1.39136 0.560811 1.14439 0.238543C1.08017 0.154737 1.00502 0.0764258 0.918808 0.00964536C0.887596 -0.0145365 0.842351 0.00976994 0.845209 0.0490949C0.864172 0.310265 1.06109 0.742999 0.402983 1.63722C-0.193729 2.4667 0.0265719 2.88387 0.10862 3.05641C0.265488 3.38695 0.484296 3.58106 0.697986 3.69443Z" fill="#4B88FF"/>
</svg>
