<svg width="20" height="20" viewBox="0 0 20 20" fill="none" xmlns="http://www.w3.org/2000/svg">
<path d="M12.1874 5.62511C11.6532 5.6248 11.1214 5.69677 10.6065 5.83906C10.4031 5.50593 10.1558 5.20166 9.87126 4.93444L10.6122 3.8763C10.7069 3.7405 10.7438 3.5727 10.7149 3.40971C10.686 3.24672 10.5936 3.10186 10.458 3.00691C10.3224 2.91196 10.1547 2.87468 9.99161 2.90324C9.82856 2.93181 9.6835 3.0239 9.58827 3.15929L8.84732 4.21743C8.19443 3.88792 7.4692 3.72776 6.73827 3.75163L6.51354 2.47714C6.49937 2.39624 6.4694 2.31893 6.42533 2.24962C6.38126 2.18031 6.32396 2.12036 6.25671 2.07321C6.18946 2.02606 6.11358 1.99263 6.0334 1.97482C5.95322 1.95702 5.87031 1.95519 5.78943 1.96945C5.70854 1.98371 5.63126 2.01377 5.562 2.05791C5.49274 2.10206 5.43286 2.15942 5.38578 2.22672C5.3387 2.29403 5.30535 2.36995 5.28764 2.45015C5.26992 2.53035 5.26819 2.61325 5.28254 2.69412L5.50713 3.96785C4.81168 4.19438 4.18498 4.59347 3.68557 5.12784L2.62602 4.38594C2.49023 4.29087 2.32223 4.25364 2.15898 4.28243C1.99574 4.31123 1.85062 4.40369 1.75554 4.53948C1.66047 4.67528 1.62324 4.84328 1.65203 5.00652C1.68083 5.16977 1.77329 5.31489 1.90909 5.40996L2.96845 6.15173C2.6369 6.80366 2.47599 7.52898 2.50074 8.25996L1.22691 8.48453C1.07301 8.51168 0.934872 8.59549 0.83971 8.71945C0.744548 8.84341 0.699269 8.99851 0.712797 9.15419C0.726325 9.30988 0.797679 9.45485 0.912796 9.56053C1.02791 9.66622 1.17844 9.72494 1.33471 9.72514C1.37134 9.72512 1.40789 9.72193 1.44396 9.71561L2.71824 9.49094C2.83028 9.83214 2.98393 10.1582 3.17572 10.4618C2.57682 11.0167 2.1591 11.7392 1.97709 12.535C1.79508 13.3309 1.85724 14.1631 2.15544 14.9231C2.45365 15.6831 2.97406 16.3356 3.64873 16.7953C4.3234 17.255 5.121 17.5006 5.93741 17.5001H12.1874C13.7621 17.5001 15.2724 16.8746 16.3859 15.7611C17.4993 14.6476 18.1249 13.1373 18.1249 11.5626C18.1249 9.98789 17.4993 8.47766 16.3859 7.36416C15.2724 6.25066 13.7621 5.62511 12.1874 5.62511V5.62511ZM3.7991 8.67936C3.79841 8.6749 3.79822 8.6705 3.79744 8.66603C3.79658 8.66115 3.79513 8.65653 3.79416 8.65171C3.65359 7.84457 3.83786 7.01459 4.30678 6.34276C4.30954 6.33899 4.31275 6.33575 4.31543 6.33189C4.31845 6.32758 4.32083 6.32304 4.32372 6.31869C4.79437 5.65002 5.50989 5.19409 6.3148 5.04998C6.3206 5.04912 6.32636 5.04872 6.33215 5.04772C6.33761 5.04676 6.34278 5.04514 6.34818 5.04405C7.14285 4.9073 7.95961 5.08336 8.62738 5.53535C8.63999 5.54573 8.65264 5.55606 8.66625 5.5656C8.67615 5.57254 8.6868 5.57744 8.69694 5.58372C8.97684 5.7844 9.22145 6.03019 9.42076 6.31107C8.14868 6.98416 7.16243 8.09395 6.64343 9.4363C6.41031 9.3955 6.17408 9.37502 5.93741 9.37511C5.34112 9.37462 4.75212 9.50623 4.21275 9.76047C4.0088 9.42898 3.86852 9.06233 3.7991 8.67936V8.67936Z" fill="white"/>
</svg>
