<svg width="20" height="20" viewBox="0 0 20 20" fill="none" xmlns="http://www.w3.org/2000/svg">
<path d="M10 15.3125C12.934 15.3125 15.3125 12.934 15.3125 10C15.3125 7.06599 12.934 4.6875 10 4.6875C7.06599 4.6875 4.6875 7.06599 4.6875 10C4.6875 12.934 7.06599 15.3125 10 15.3125Z" fill="white"/>
<path d="M10 3.4375C10.1658 3.4375 10.3247 3.37165 10.4419 3.25444C10.5591 3.13723 10.625 2.97826 10.625 2.8125V1.25C10.625 1.08424 10.5592 0.925268 10.4419 0.808058C10.3247 0.690848 10.1658 0.625 10 0.625C9.83424 0.625 9.67527 0.690848 9.55806 0.808058C9.44085 0.925268 9.375 1.08424 9.375 1.25V2.8125C9.375 2.97826 9.44085 3.13723 9.55806 3.25444C9.67527 3.37165 9.83424 3.4375 10 3.4375Z" fill="white"/>
<path d="M4.47568 5.35955C4.53367 5.41781 4.60258 5.46406 4.67846 5.49565C4.75435 5.52725 4.83572 5.54356 4.91792 5.54366C5.00012 5.54375 5.08153 5.52764 5.1575 5.49623C5.23346 5.46481 5.30248 5.41873 5.3606 5.3606C5.41873 5.30248 5.46481 5.23346 5.49623 5.1575C5.52764 5.08153 5.54375 5.00012 5.54366 4.91792C5.54356 4.83572 5.52725 4.75435 5.49565 4.67846C5.46406 4.60258 5.41781 4.53367 5.35955 4.47568L4.2547 3.37083C4.19668 3.31274 4.12777 3.26664 4.05193 3.23519C3.97609 3.20373 3.89479 3.18753 3.81268 3.1875C3.73058 3.18747 3.64927 3.20363 3.57341 3.23504C3.49754 3.26645 3.42861 3.3125 3.37055 3.37055C3.3125 3.42861 3.26645 3.49754 3.23504 3.57341C3.20363 3.64927 3.18747 3.73058 3.1875 3.81268C3.18753 3.89479 3.20373 3.97609 3.23519 4.05193C3.26664 4.12777 3.31274 4.19668 3.37083 4.2547L4.47568 5.35955Z" fill="white"/>
<path d="M3.4375 10C3.4375 9.83424 3.37165 9.67527 3.25444 9.55806C3.13723 9.44085 2.97826 9.375 2.8125 9.375H1.25C1.08424 9.375 0.925268 9.44085 0.808058 9.55806C0.690848 9.67527 0.625 9.83424 0.625 10C0.625 10.1658 0.690848 10.3247 0.808058 10.4419C0.925268 10.5592 1.08424 10.625 1.25 10.625H2.8125C2.97826 10.625 3.13723 10.5591 3.25444 10.4419C3.37165 10.3247 3.4375 10.1658 3.4375 10Z" fill="white"/>
<path d="M4.47568 14.6402L3.37083 15.745C3.31274 15.803 3.26664 15.8719 3.23519 15.9478C3.20373 16.0236 3.18753 16.1049 3.1875 16.187C3.18747 16.2691 3.20363 16.3504 3.23504 16.4263C3.26645 16.5022 3.3125 16.5711 3.37055 16.6292C3.42861 16.6872 3.49754 16.7333 3.57341 16.7647C3.64927 16.7961 3.73058 16.8122 3.81268 16.8122C3.89479 16.8122 3.97609 16.796 4.05193 16.7645C4.12777 16.7331 4.19668 16.687 4.2547 16.6289L5.35955 15.524C5.41781 15.466 5.46406 15.3971 5.49565 15.3212C5.52725 15.2454 5.54356 15.164 5.54366 15.0818C5.54375 14.9996 5.52764 14.9182 5.49623 14.8422C5.46481 14.7663 5.41873 14.6972 5.3606 14.6391C5.30248 14.581 5.23346 14.5349 5.1575 14.5035C5.08153 14.4721 5.00012 14.456 4.91792 14.4561C4.83572 14.4562 4.75435 14.4725 4.67846 14.5041C4.60258 14.5357 4.53367 14.5819 4.47568 14.6402Z" fill="white"/>
<path d="M10 16.5625C9.83424 16.5625 9.67527 16.6284 9.55806 16.7456C9.44085 16.8628 9.375 17.0217 9.375 17.1875V18.75C9.375 18.9158 9.44085 19.0747 9.55806 19.1919C9.67527 19.3092 9.83424 19.375 10 19.375C10.1658 19.375 10.3247 19.3092 10.4419 19.1919C10.5592 19.0747 10.625 18.9158 10.625 18.75V17.1875C10.625 17.0217 10.5591 16.8628 10.4419 16.7456C10.3247 16.6284 10.1658 16.5625 10 16.5625Z" fill="white"/>
<path d="M15.524 14.6402C15.466 14.5819 15.3971 14.5357 15.3212 14.5041C15.2454 14.4725 15.164 14.4562 15.0818 14.4561C14.9996 14.456 14.9182 14.4721 14.8422 14.5035C14.7663 14.5349 14.6972 14.581 14.6391 14.6391C14.581 14.6972 14.5349 14.7663 14.5035 14.8422C14.4721 14.9182 14.456 14.9996 14.4561 15.0818C14.4562 15.164 14.4725 15.2454 14.5041 15.3212C14.5357 15.3971 14.5819 15.466 14.6402 15.524L15.745 16.6289C15.803 16.687 15.8719 16.7331 15.9478 16.7645C16.0236 16.796 16.1049 16.8122 16.187 16.8122C16.2691 16.8122 16.3504 16.7961 16.4263 16.7647C16.5022 16.7333 16.5711 16.6872 16.6292 16.6292C16.6872 16.5711 16.7333 16.5022 16.7647 16.4263C16.7961 16.3504 16.8122 16.2691 16.8122 16.187C16.8122 16.1049 16.796 16.0236 16.7645 15.9478C16.7331 15.8719 16.687 15.803 16.6289 15.745L15.524 14.6402Z" fill="white"/>
<path d="M18.75 9.375H17.1875C17.0217 9.375 16.8628 9.44085 16.7456 9.55806C16.6283 9.67527 16.5625 9.83424 16.5625 10C16.5625 10.1658 16.6283 10.3247 16.7456 10.4419C16.8628 10.5592 17.0217 10.625 17.1875 10.625H18.75C18.9158 10.625 19.0747 10.5592 19.1919 10.4419C19.3092 10.3247 19.375 10.1658 19.375 10C19.375 9.83424 19.3092 9.67527 19.1919 9.55806C19.0747 9.44085 18.9158 9.375 18.75 9.375Z" fill="white"/>
<path d="M15.0825 5.54262C15.1646 5.54272 15.2459 5.5266 15.3218 5.49518C15.3976 5.46377 15.4665 5.41767 15.5245 5.35955L16.6293 4.2547C16.6874 4.19668 16.7335 4.12777 16.765 4.05193C16.7964 3.97609 16.8126 3.89479 16.8126 3.81268C16.8127 3.73058 16.7965 3.64927 16.7651 3.57341C16.7337 3.49754 16.6876 3.42861 16.6296 3.37055C16.5715 3.3125 16.5026 3.26645 16.4267 3.23504C16.3509 3.20363 16.2696 3.18747 16.1875 3.1875C16.1054 3.18753 16.0241 3.20373 15.9482 3.23519C15.8724 3.26664 15.8035 3.31274 15.7454 3.37083L14.6406 4.47568C14.5532 4.56309 14.4937 4.67445 14.4695 4.79569C14.4454 4.91693 14.4578 5.0426 14.5051 5.1568C14.5524 5.27101 14.6325 5.36862 14.7353 5.43729C14.8381 5.50597 14.9589 5.54262 15.0825 5.54262H15.0825Z" fill="white"/>
</svg>
