<svg width="20" height="20" viewBox="0 0 20 20" fill="none" xmlns="http://www.w3.org/2000/svg">
<path d="M12.5 3.125C11.2232 3.12605 9.9718 3.48224 8.88581 4.15375C7.79982 4.82526 6.92202 5.7856 6.35056 6.92741L6.35014 6.92738C5.87158 7.88086 5.62293 8.93316 5.62409 10C5.62409 10.1658 5.55824 10.3247 5.44103 10.4419C5.32382 10.5592 5.16485 10.625 4.99909 10.625C4.83333 10.625 4.67436 10.5592 4.55715 10.4419C4.43994 10.3247 4.37409 10.1658 4.37409 10C4.37311 8.94272 4.57961 7.89552 4.9819 6.91776C3.72219 7.081 2.57185 7.71763 1.76455 8.69833C0.957251 9.67904 0.553532 10.9303 0.635402 12.1979C0.717272 13.4655 1.27859 14.6544 2.20534 15.5231C3.13209 16.3918 4.35476 16.8752 5.625 16.875H12.5C14.3234 16.875 16.0721 16.1507 17.3614 14.8614C18.6507 13.572 19.375 11.8234 19.375 10C19.375 8.17664 18.6507 6.42795 17.3614 5.13864C16.0721 3.84933 14.3234 3.125 12.5 3.125Z" fill="white"/>
</svg>
