<svg width="9" height="9" viewBox="0 0 9 9" fill="none" xmlns="http://www.w3.org/2000/svg">
<path d="M4.17857 0H4.82143V1.60714H4.17857V0ZM6.32829 2.21786L7.45521 1.09093L7.90971 1.54543L6.78279 2.67236L6.32829 2.21786ZM7.39286 4.17857H9V4.82143H7.39286V4.17857ZM6.32829 6.78214L6.78279 6.32796L7.90971 7.45489L7.45521 7.90939L6.32829 6.78214ZM4.17857 7.39286H4.82143V9H4.17857V7.39286ZM1.09093 7.45457L2.21786 6.32764L2.67236 6.78214L1.54575 7.90907L1.09093 7.45457ZM0 4.17857H1.60714V4.82143H0V4.17857ZM1.09125 1.54543L1.54575 1.09093L2.67268 2.21786L2.21786 2.67236L1.09125 1.54543ZM4.5 2.57143C4.11856 2.57143 3.74569 2.68454 3.42854 2.89645C3.11139 3.10837 2.8642 3.40957 2.71823 3.76197C2.57226 4.11437 2.53407 4.50214 2.60849 4.87625C2.6829 5.25035 2.86658 5.59399 3.13629 5.86371C3.40601 6.13342 3.74965 6.3171 4.12375 6.39151C4.49786 6.46593 4.88563 6.42774 5.23803 6.28177C5.59043 6.1358 5.89163 5.88861 6.10355 5.57146C6.31546 5.2543 6.42857 4.88144 6.42857 4.5C6.42857 3.98851 6.22538 3.49797 5.86371 3.13629C5.50203 2.77462 5.01149 2.57143 4.5 2.57143Z" fill="#F8F8F8"/>
</svg>
