<svg width="9" height="9" viewBox="0 0 9 9" fill="none" xmlns="http://www.w3.org/2000/svg">
<path d="M4.4739 0C4.75081 0 5.01637 0.0948211 5.21218 0.263604C5.40798 0.432387 5.51798 0.661305 5.51798 0.9C5.51798 1.3995 5.05336 1.8 4.4739 1.8C4.19699 1.8 3.93142 1.70518 3.73562 1.5364C3.53982 1.36761 3.42981 1.13869 3.42981 0.9C3.42981 0.661305 3.53982 0.432387 3.73562 0.263604C3.93142 0.0948211 4.19699 0 4.4739 0ZM4.67749 5.7555C5.41905 5.75301 6.16006 5.79059 6.89617 5.868C6.92749 4.644 6.8022 3.564 6.56207 3.15C6.4942 3.0285 6.40023 2.925 6.30104 2.835L2.08817 5.949C2.79814 5.85 3.69084 5.7555 4.67749 5.7555ZM2.10383 6.75C2.17169 7.533 2.30742 8.325 2.52668 9H3.60731C3.45592 8.604 3.34629 8.1405 3.26276 7.65C3.26276 7.65 4.4739 7.452 5.68503 7.65C5.60151 8.1405 5.49188 8.604 5.34049 9H6.42111C6.65081 8.3025 6.78654 7.4745 6.85441 6.6555C6.13206 6.58022 5.4051 6.54265 4.67749 6.543C3.66995 6.543 2.79292 6.6375 2.10383 6.75ZM4.4739 2.25C4.4739 2.25 2.90777 2.25 2.38573 3.15C2.20824 3.456 2.09339 4.1175 2.05684 4.932L5.47622 2.403C4.9594 2.25 4.4739 2.25 4.4739 2.25ZM7.90371 1.6515L7.30859 1.053L5.47622 2.4075C5.76334 2.493 6.06613 2.628 6.30104 2.835L7.90371 1.6515ZM9 6.2235C8.95302 6.21 8.20128 5.9985 6.89617 5.868C6.89095 6.1245 6.87529 6.39 6.85441 6.6555C8.029 6.7815 8.70244 6.975 8.71288 6.975L9 6.2235ZM2.05684 4.932L0 6.453L0.464617 7.119C0.475058 7.1145 1.08063 6.912 2.10383 6.75C2.0464 6.1155 2.03074 5.49 2.05684 4.932Z" fill="red"/>
</svg>
