<svg width="6" height="6" viewBox="0 0 6 6" fill="none" xmlns="http://www.w3.org/2000/svg">
<path d="M1.875 2.0625C1.875 0.909 2.784 0 3.9375 0C5.091 0 6 0.909 6 2.0625C6 3.216 5.091 4.125 3.9375 4.125C3.74785 4.1273 3.55872 4.10461 3.375 4.0575V4.125C3.375 4.22446 3.33549 4.31984 3.26516 4.39016C3.19484 4.46049 3.09946 4.5 3 4.5H2.625V4.875C2.625 4.97446 2.58549 5.06984 2.51516 5.14016C2.44484 5.21049 2.34946 5.25 2.25 5.25H1.875V5.4375C1.875 5.58668 1.81574 5.72976 1.71025 5.83525C1.60476 5.94074 1.46168 6 1.3125 6H0.5625C0.413316 6 0.270242 5.94074 0.164752 5.83525C0.0592632 5.72976 0 5.58668 0 5.4375V4.84275C0 4.6935 0.05925 4.55025 0.165 4.44525L1.8675 2.74237C1.91775 2.69212 1.9425 2.60438 1.92075 2.50313C1.89006 2.35827 1.87472 2.21057 1.875 2.0625ZM4.875 1.5C4.875 1.40054 4.83549 1.30516 4.76516 1.23484C4.69484 1.16451 4.59946 1.125 4.5 1.125C4.40054 1.125 4.30516 1.16451 4.23484 1.23484C4.16451 1.30516 4.125 1.40054 4.125 1.5C4.125 1.59946 4.16451 1.69484 4.23484 1.76516C4.30516 1.83549 4.40054 1.875 4.5 1.875C4.59946 1.875 4.69484 1.83549 4.76516 1.76516C4.83549 1.69484 4.875 1.59946 4.875 1.5Z" fill="red"/>
</svg>
