<svg width="83" height="30" viewBox="0 0 83 30" fill="none" xmlns="http://www.w3.org/2000/svg">
<path d="M41.4695 30L46.7678 27.7079C45.6578 26.201 43.4988 17.8177 43.4988 17.8177H37.8084C38.4628 25.4157 41.4695 30 41.4695 30Z" fill="white" fill-opacity="0.7"/>
<path d="M1.44642 14.7403V8.49533H7.07052C3.99753 9.3257 2.16701 14.7403 2.16701 14.7403H1.44642ZM0 7.00969V21.0013H2.41866L12.8192 11.594H22.8859V8.19024H23.6806V7.65966H0.855667V7.00969H0Z" fill="white" fill-opacity="0.7"/>
<path d="M44.8737 6.54542H47.9546V8.21677H44.8737V6.54542Z" fill="white" fill-opacity="0.7"/>
<path d="M27.7947 15.385C27.9552 15.385 28.112 15.4327 28.2453 15.522C28.3787 15.6113 28.4826 15.7383 28.5439 15.8867C28.6052 16.0352 28.6211 16.1986 28.5896 16.3561C28.5581 16.5137 28.4806 16.6583 28.367 16.7718C28.2533 16.8852 28.1087 16.9623 27.9512 16.9933C27.7938 17.0243 27.6307 17.0079 27.4827 16.946C27.3346 16.8842 27.2082 16.7797 27.1194 16.6459C27.0307 16.512 26.9835 16.3548 26.9841 16.1941C26.9848 15.9793 27.0705 15.7735 27.2224 15.6218C27.3744 15.4702 27.5802 15.385 27.7947 15.385ZM27.4742 21.6963L29.4054 18.5393C29.5166 18.3295 29.6808 18.1524 29.8816 18.0259C30.0824 17.8993 30.3127 17.8275 30.5498 17.8177H37.0243V15.5919H31.726V14.7403H26.3589V16.1809L22.0487 24.1052C22.0487 24.1052 21.1321 25.1664 22.7666 25.742C24.4012 26.3177 27.0052 27.2489 27.0052 27.2489C27.0052 27.2489 28.0649 27.4479 28.0649 26.4C28.0649 25.3521 27.4742 21.6963 27.4742 21.6963Z" fill="white" fill-opacity="0.7"/>
<path d="M45.8962 9.45038C45.8418 9.5045 45.8044 9.57342 45.7886 9.64862C45.7729 9.72381 45.7796 9.80198 45.8078 9.87343C45.836 9.94488 45.8845 10.0065 45.9473 10.0506C46.0101 10.0947 46.0845 10.1194 46.1612 10.1216C46.2647 10.1202 46.3636 10.0784 46.4369 10.0051C46.5101 9.93172 46.5518 9.83265 46.5532 9.72894C46.5496 9.62886 46.5079 9.53396 46.4367 9.46365C46.3668 9.39214 46.2716 9.35114 46.1717 9.34957C46.0703 9.34593 45.9714 9.3821 45.8962 9.45038Z" fill="white" fill-opacity="0.7"/>
<path d="M27.7947 16.6C27.8749 16.6 27.9532 16.5762 28.0199 16.5316C28.0866 16.487 28.1385 16.4236 28.1692 16.3495C28.1999 16.2753 28.2079 16.1937 28.1923 16.115C28.1766 16.0362 28.138 15.9639 28.0813 15.9071C28.0246 15.8504 27.9524 15.8117 27.8738 15.796C27.7952 15.7804 27.7137 15.7884 27.6396 15.8191C27.5655 15.8499 27.5022 15.9019 27.4577 15.9686C27.4132 16.0354 27.3894 16.1139 27.3894 16.1941C27.3894 16.3018 27.4321 16.405 27.5081 16.4812C27.5841 16.5573 27.6872 16.6 27.7947 16.6Z" fill="white" fill-opacity="0.7"/>
<path d="M70.1808 7.1105V1.51016H68.8775L64.8879 5.11549V7.1105H70.1808ZM68.9967 6.04933H66.0667L68.1278 4.19227H68.9967V6.04933Z" fill="white" fill-opacity="0.7"/>
<path d="M40.8258 5.11549H33.2201C33.0188 5.12399 32.8178 5.09161 32.6293 5.02032C32.4408 4.94902 32.2686 4.84027 32.1232 4.70062C31.9777 4.56096 31.862 4.39329 31.7829 4.20768C31.7039 4.02207 31.6631 3.82236 31.6631 3.62057C31.6631 3.41877 31.7039 3.21906 31.7829 3.03345C31.862 2.84784 31.9777 2.68017 32.1232 2.54051C32.2686 2.40086 32.4408 2.29211 32.6293 2.22082C32.8178 2.14952 33.0188 2.11714 33.2201 2.12564H40.8258C41.0271 2.11714 41.2281 2.14952 41.4166 2.22082C41.6051 2.29211 41.7773 2.40086 41.9227 2.54051C42.0682 2.68017 42.1839 2.84784 42.263 3.03345C42.342 3.21906 42.3828 3.41877 42.3828 3.62057C42.3828 3.82236 42.342 4.02207 42.263 4.20768C42.1839 4.39329 42.0682 4.56096 41.9227 4.70062C41.7773 4.84027 41.6051 4.94902 41.4166 5.02032C41.2281 5.09161 41.0271 5.12399 40.8258 5.11549ZM44.4154 8.19024V3.5423C44.4154 3.5423 44.871 1.57648 42.2563 1.24752C39.6416 0.918554 29.1749 0.00594531 29.1749 0.00594531C29.1749 0.00594531 26.7562 -0.259348 26.7562 2.75438V5.76811H24.2714V8.19024H44.4154Z" fill="white" fill-opacity="0.7"/>
<path d="M64.4137 10.2808H50.7018C50.6104 10.2808 50.5228 10.2444 50.4582 10.1797C50.3937 10.1151 50.3574 10.0273 50.3574 9.93587C50.3574 9.8444 50.3937 9.75668 50.4582 9.692C50.5228 9.62733 50.6104 9.59099 50.7018 9.59099H64.4137V7.95678H50.7018C50.6104 7.95678 50.5228 7.92045 50.4582 7.85577C50.3937 7.79109 50.3574 7.70337 50.3574 7.6119C50.3574 7.52043 50.3937 7.43271 50.4582 7.36803C50.5228 7.30336 50.6104 7.26702 50.7018 7.26702H64.4137V5.86362L48.5189 5.11549V12.22L64.4137 11.4719V10.2808Z" fill="white" fill-opacity="0.7"/>
<path d="M79.5349 7.11315H83V9.27529H79.5349V7.11315Z" fill="white" fill-opacity="0.7"/>
<path d="M32.5314 12.6021H24.2131C24.1538 12.5958 24.099 12.5678 24.0592 12.5235C24.0193 12.4792 23.9972 12.4216 23.9972 12.362C23.9972 12.3023 24.0193 12.2448 24.0592 12.2005C24.099 12.1561 24.1538 12.1281 24.2131 12.1219H32.5314C32.5626 12.1216 32.5936 12.1278 32.6223 12.1401C32.6511 12.1524 32.6769 12.1706 32.6983 12.1935C32.7211 12.2155 32.7392 12.2419 32.7515 12.271C32.7638 12.3002 32.77 12.3316 32.7698 12.3633C32.7698 12.3947 32.7636 12.4257 32.7516 12.4547C32.7396 12.4836 32.7221 12.51 32.7 12.5321C32.6778 12.5543 32.6515 12.5719 32.6226 12.5839C32.5937 12.5959 32.5627 12.6021 32.5314 12.6021ZM32.5314 10.7848H24.2131C24.1499 10.7848 24.0892 10.7597 24.0445 10.7149C23.9998 10.6701 23.9747 10.6094 23.9747 10.546C23.9747 10.4827 23.9998 10.422 24.0445 10.3772C24.0892 10.3324 24.1499 10.3073 24.2131 10.3073H32.5314C32.5937 10.3083 32.6534 10.3329 32.6983 10.3763C32.7211 10.3982 32.7392 10.4246 32.7515 10.4538C32.7638 10.483 32.77 10.5144 32.7698 10.546C32.7698 10.6094 32.7447 10.6701 32.7 10.7149C32.6552 10.7597 32.5946 10.7848 32.5314 10.7848ZM32.5314 9.93587H24.2131C24.1499 9.93587 24.0892 9.91072 24.0445 9.86594C23.9998 9.82116 23.9747 9.76043 23.9747 9.69711C23.9747 9.63378 23.9998 9.57305 24.0445 9.52828C24.0892 9.4835 24.1499 9.45834 24.2131 9.45834H32.5314C32.5946 9.45834 32.6552 9.4835 32.7 9.52828C32.7447 9.57305 32.7698 9.63378 32.7698 9.69711C32.7677 9.75904 32.7417 9.81775 32.6972 9.86082C32.6527 9.90389 32.5933 9.92795 32.5314 9.92791V9.93587ZM32.5314 11.7505H24.2131C24.1499 11.7505 24.0892 11.7253 24.0445 11.6805C23.9998 11.6358 23.9747 11.575 23.9747 11.5117C23.9747 11.4484 23.9998 11.3877 24.0445 11.3429C24.0892 11.2981 24.1499 11.2729 24.2131 11.2729H32.5314C32.5625 11.2732 32.5933 11.2797 32.622 11.292C32.6506 11.3043 32.6766 11.3222 32.6983 11.3446C32.7211 11.3659 32.7393 11.3918 32.7516 11.4206C32.7639 11.4494 32.7701 11.4804 32.7698 11.5117C32.7698 11.5431 32.7636 11.5741 32.7516 11.6031C32.7396 11.6321 32.7221 11.6584 32.7 11.6805C32.6778 11.7027 32.6515 11.7203 32.6226 11.7323C32.5937 11.7443 32.5627 11.7505 32.5314 11.7505ZM43.9624 11.0501H47.9493V8.49533H23.2276V14.3318H31.8611L33.3791 12.8196H37.6945V17.3296H44.3015L43.1809 11.838C43.1809 11.838 42.9822 11.0501 43.9624 11.0501ZM45.324 9.72364C45.3233 9.61136 45.3448 9.50005 45.3872 9.39612C45.4296 9.29218 45.4922 9.19768 45.5712 9.11804C45.6502 9.0384 45.7442 8.97519 45.8477 8.93207C45.9513 8.88894 46.0623 8.86674 46.1744 8.86674C46.2857 8.86679 46.3958 8.88884 46.4986 8.93163C46.6013 8.97443 46.6946 9.03712 46.7731 9.11612C46.9314 9.27644 47.0199 9.4929 47.0195 9.71833C47.0195 9.94348 46.9302 10.1594 46.7712 10.3186C46.6122 10.4778 46.3966 10.5673 46.1717 10.5673C45.9469 10.5673 45.7313 10.4778 45.5723 10.3186C45.4133 10.1594 45.324 9.94348 45.324 9.71833V9.72364Z" fill="white" fill-opacity="0.7"/>
<path d="M64.8852 7.50313H79.1429V8.88H64.8852V7.50313Z" fill="white" fill-opacity="0.7"/>
</svg>
