<svg width="20" height="20" viewBox="0 0 20 20" fill="none" xmlns="http://www.w3.org/2000/svg">
<path d="M12.5728 15.9679L10.5221 19.0929C10.4311 19.2315 10.2888 19.3283 10.1265 19.362C9.96424 19.3956 9.7952 19.3635 9.65662 19.2725C9.51803 19.1816 9.42125 19.0393 9.38756 18.877C9.35387 18.7147 9.38604 18.5457 9.47698 18.4071L11.5278 15.2821C11.5728 15.2135 11.6309 15.1544 11.6988 15.1082C11.7666 15.0621 11.8429 15.0297 11.9233 15.013C12.0036 14.9964 12.0865 14.9957 12.1671 15.011C12.2478 15.0264 12.3246 15.0574 12.3932 15.1025C12.4618 15.1475 12.5209 15.2056 12.5671 15.2735C12.6132 15.3413 12.6456 15.4176 12.6623 15.498C12.6789 15.5783 12.6796 15.6612 12.6643 15.7418C12.6489 15.8225 12.6179 15.8993 12.5728 15.9679ZM12.187 1.25C10.9865 1.25136 9.81443 1.61601 8.82502 2.29601C7.8356 2.976 7.07513 3.9395 6.6436 5.05981L6.64305 5.06119C6.38218 5.73971 6.24877 6.46055 6.24952 7.1875C6.24952 7.35326 6.18367 7.51223 6.06646 7.62944C5.94925 7.74665 5.79028 7.8125 5.62452 7.8125C5.45876 7.8125 5.29979 7.74665 5.18258 7.62944C5.06537 7.51223 4.99952 7.35326 4.99952 7.1875C4.99893 6.46132 5.10878 5.73927 5.32528 5.04612C4.31261 5.20039 3.3956 5.73152 2.75787 6.53314C2.12014 7.33477 1.80877 8.34771 1.88612 9.36914C1.96346 10.3906 2.42381 11.3451 3.17497 12.0415C3.92614 12.738 4.91267 13.125 5.93702 13.125H9.01758L7.19183 15.9071C7.10088 16.0457 7.06872 16.2147 7.10241 16.377C7.13609 16.5393 7.23288 16.6816 7.37146 16.7725C7.51005 16.8635 7.67908 16.8956 7.84139 16.862C8.00369 16.8283 8.14596 16.7315 8.2369 16.5929L10.5127 13.125H12.187C13.7617 13.125 15.272 12.4994 16.3855 11.3859C17.499 10.2724 18.1245 8.76222 18.1245 7.1875C18.1245 5.61278 17.499 4.10255 16.3855 2.98905C15.272 1.87556 13.7617 1.25 12.187 1.25H12.187Z" fill="white"/>
</svg>
