<svg width="20" height="20" viewBox="0 0 20 20" fill="none" xmlns="http://www.w3.org/2000/svg">
<path d="M13.125 17.5C13.125 17.6658 13.0592 17.8247 12.942 17.9419C12.8247 18.0591 12.6658 18.125 12.5 18.125H8.12501C7.95925 18.125 7.80028 18.0592 7.68307 17.9419C7.56586 17.8247 7.50001 17.6658 7.50001 17.5C7.50001 17.3342 7.56586 17.1753 7.68307 17.0581C7.80028 16.9408 7.95925 16.875 8.12501 16.875H12.5C12.6658 16.875 12.8247 16.9409 12.942 17.0581C13.0592 17.1753 13.125 17.3342 13.125 17.5ZM10 15C10 14.8342 9.93416 14.6753 9.81695 14.5581C9.69974 14.4409 9.54077 14.375 9.37501 14.375H5.62501C5.45925 14.375 5.30028 14.4408 5.18307 14.5581C5.06586 14.6753 5.00001 14.8342 5.00001 15C5.00001 15.1658 5.06586 15.3247 5.18307 15.4419C5.30028 15.5592 5.45925 15.625 5.62501 15.625H9.37501C9.54077 15.625 9.69974 15.5591 9.81695 15.4419C9.93416 15.3247 10 15.1658 10 15ZM14.375 14.375H12.5C12.3343 14.375 12.1753 14.4408 12.0581 14.5581C11.9409 14.6753 11.875 14.8342 11.875 15C11.875 15.1658 11.9409 15.3247 12.0581 15.4419C12.1753 15.5592 12.3343 15.625 12.5 15.625H14.375C14.5408 15.625 14.6997 15.5592 14.817 15.4419C14.9342 15.3247 15 15.1658 15 15C15 14.8342 14.9342 14.6753 14.817 14.5581C14.6997 14.4408 14.5408 14.375 14.375 14.375ZM12.1875 1.25C10.9867 1.25137 9.81443 1.61617 8.82489 2.29643C7.83535 2.97668 7.07489 3.94053 6.64354 5.06119L6.64312 5.06111C6.38333 5.73995 6.25009 6.46064 6.25001 7.1875C6.25001 7.35326 6.18416 7.51223 6.06695 7.62944C5.94974 7.74665 5.79077 7.8125 5.62501 7.8125C5.45925 7.8125 5.30028 7.74665 5.18307 7.62944C5.06586 7.51223 5.00001 7.35326 5.00001 7.1875C5.00025 6.46132 5.11026 5.73935 5.32629 5.04604C4.31356 5.20019 3.39644 5.73124 2.7586 6.53283C2.12077 7.33443 1.8093 8.3474 1.88658 9.36888C1.96387 10.3904 2.42419 11.3449 3.17536 12.0414C3.92654 12.738 4.91311 13.125 5.93751 13.125H12.1875C13.7622 13.125 15.2725 12.4994 16.386 11.3859C17.4995 10.2724 18.125 8.76222 18.125 7.1875C18.125 5.61278 17.4995 4.10255 16.386 2.98905C15.2725 1.87556 13.7622 1.25 12.1875 1.25Z" fill="white"/>
</svg>
