<svg width="20" height="20" viewBox="0 0 20 20" fill="none" xmlns="http://www.w3.org/2000/svg">
<path d="M13.7495 15.3125C13.7495 15.4979 13.6945 15.6792 13.5915 15.8333C13.4885 15.9875 13.3421 16.1077 13.1708 16.1786C12.9995 16.2496 12.811 16.2682 12.6291 16.232C12.4473 16.1958 12.2802 16.1065 12.1491 15.9754C12.018 15.8443 11.9287 15.6773 11.8925 15.4954C11.8564 15.3135 11.8749 15.125 11.9459 14.9537C12.0168 14.7824 12.137 14.636 12.2912 14.533C12.4453 14.43 12.6266 14.375 12.812 14.375C13.0606 14.3753 13.2989 14.4741 13.4746 14.6499C13.6504 14.8257 13.7492 15.0639 13.7495 15.3125ZM5.93702 14.375C5.7516 14.375 5.57035 14.43 5.41617 14.533C5.262 14.636 5.14184 14.7824 5.07089 14.9537C4.99993 15.125 4.98136 15.3135 5.01754 15.4954C5.05371 15.6773 5.143 15.8443 5.27411 15.9754C5.40522 16.1065 5.57227 16.1958 5.75413 16.232C5.93598 16.2682 6.12448 16.2496 6.29579 16.1786C6.46709 16.1077 6.61351 15.9875 6.71653 15.8333C6.81954 15.6792 6.87452 15.4979 6.87452 15.3125C6.87424 15.0639 6.77537 14.8257 6.59962 14.6499C6.42387 14.4741 6.18558 14.3753 5.93702 14.375ZM9.06202 15.625C8.8766 15.625 8.69535 15.68 8.54117 15.783C8.387 15.886 8.26684 16.0324 8.19589 16.2037C8.12493 16.375 8.10636 16.5635 8.14254 16.7454C8.17871 16.9273 8.268 17.0943 8.39911 17.2254C8.53022 17.3565 8.69727 17.4458 8.87913 17.482C9.06098 17.5182 9.24948 17.4996 9.42079 17.4286C9.59209 17.3577 9.73851 17.2375 9.84153 17.0833C9.94454 16.9292 9.99952 16.7479 9.99952 16.5625C9.99924 16.3139 9.90037 16.0757 9.72462 15.8999C9.54887 15.7241 9.31058 15.6253 9.06202 15.625ZM5.31202 17.5C5.1266 17.5 4.94535 17.555 4.79117 17.658C4.637 17.761 4.51684 17.9074 4.44588 18.0787C4.37493 18.25 4.35636 18.4385 4.39254 18.6204C4.42871 18.8023 4.518 18.9693 4.64911 19.1004C4.78022 19.2315 4.94727 19.3208 5.12913 19.357C5.31098 19.3932 5.49948 19.3746 5.67079 19.3036C5.84209 19.2327 5.98851 19.1125 6.09153 18.9583C6.19454 18.8042 6.24952 18.6229 6.24952 18.4375C6.24924 18.1889 6.15037 17.9507 5.97462 17.7749C5.79887 17.5991 5.56058 17.5003 5.31202 17.5ZM12.187 17.5C12.0016 17.5 11.8203 17.555 11.6662 17.658C11.512 17.761 11.3918 17.9074 11.3209 18.0787C11.2499 18.25 11.2314 18.4385 11.2675 18.6204C11.3037 18.8023 11.393 18.9693 11.5241 19.1004C11.6552 19.2315 11.8223 19.3208 12.0041 19.357C12.186 19.3932 12.3745 19.3746 12.5458 19.3036C12.7171 19.2327 12.8635 19.1125 12.9665 18.9583C13.0695 18.8042 13.1245 18.6229 13.1245 18.4375C13.1242 18.1889 13.0254 17.9507 12.8496 17.7749C12.6739 17.5991 12.4356 17.5003 12.187 17.5ZM12.187 1.25C10.9865 1.25136 9.81443 1.61601 8.82502 2.29601C7.8356 2.976 7.07513 3.9395 6.6436 5.05981L6.64305 5.06119C6.38218 5.73971 6.24877 6.46055 6.24952 7.1875C6.24952 7.35326 6.18367 7.51223 6.06646 7.62944C5.94925 7.74665 5.79028 7.8125 5.62452 7.8125C5.45876 7.8125 5.29979 7.74665 5.18258 7.62944C5.06537 7.51223 4.99952 7.35326 4.99952 7.1875C4.99893 6.46132 5.10878 5.73927 5.32528 5.04612C4.31261 5.20039 3.3956 5.73152 2.75787 6.53314C2.12014 7.33477 1.80877 8.34771 1.88612 9.36914C1.96346 10.3906 2.42381 11.3451 3.17497 12.0415C3.92614 12.738 4.91267 13.125 5.93702 13.125H12.187C13.7617 13.125 15.272 12.4994 16.3855 11.3859C17.499 10.2724 18.1245 8.76222 18.1245 7.1875C18.1245 5.61278 17.499 4.10255 16.3855 2.98905C15.272 1.87556 13.7617 1.25 12.187 1.25Z" fill="white"/>
</svg>
