<svg width="20" height="20" viewBox="0 0 20 20" fill="none" xmlns="http://www.w3.org/2000/svg">
<path d="M10.5127 13.1252L9.28225 15.0002H12.0503C12.163 15.0002 12.2737 15.0307 12.3705 15.0885C12.4673 15.1462 12.5467 15.2291 12.6003 15.3283C12.6538 15.4275 12.6796 15.5393 12.6747 15.652C12.6699 15.7646 12.6347 15.8738 12.5728 15.9681L10.5221 19.0931C10.4311 19.2317 10.2888 19.3285 10.1265 19.3622C9.96424 19.3958 9.79521 19.3637 9.65662 19.2727C9.51803 19.1818 9.42125 19.0395 9.38756 18.8772C9.35387 18.7149 9.38604 18.5459 9.47698 18.4073L10.8926 16.2502H8.12452C8.01178 16.2502 7.90115 16.2197 7.80433 16.1619C7.70751 16.1042 7.62812 16.0213 7.57456 15.9221C7.521 15.8229 7.49528 15.7111 7.5001 15.5984C7.50493 15.4858 7.54013 15.3766 7.60198 15.2823L9.01758 13.1252H5.93702C4.91267 13.1252 3.92614 12.7382 3.17497 12.0417C2.42381 11.3453 1.96346 10.3908 1.88612 9.36934C1.80877 8.34791 2.12014 7.33497 2.75787 6.53334C3.3956 5.73172 4.31261 5.20059 5.32528 5.04632C5.10878 5.73947 4.99893 6.46152 4.99952 7.1877C4.99952 7.35346 5.06537 7.51243 5.18258 7.62964C5.29979 7.74685 5.45876 7.8127 5.62452 7.8127C5.79028 7.8127 5.94925 7.74685 6.06646 7.62964C6.18367 7.51243 6.24952 7.35346 6.24952 7.1877C6.24877 6.46075 6.38218 5.73991 6.64306 5.06139L6.6436 5.06001C7.03125 4.05002 7.68747 3.16512 8.54139 2.5009C9.39531 1.83668 10.4145 1.41838 11.4888 1.29119C12.5631 1.16399 13.6518 1.33273 14.6372 1.77917C15.6226 2.22562 16.4674 2.93281 17.0802 3.82436C17.6929 4.71591 18.0505 5.75793 18.1142 6.83789C18.1779 7.91785 17.9454 8.99469 17.4417 9.95211C16.938 10.9095 16.1823 11.7111 15.2562 12.2704C14.3301 12.8296 13.2689 13.1252 12.187 13.1252H10.5127Z" fill="white"/>
</svg>
